<svg width="50" height="50" viewBox="0 0 50 50" fill="none" xmlns="http://www.w3.org/2000/svg">
<path d="M41.0568 49.144C30.3631 50.2853 19.6369 50.2853 8.94318 49.144C4.67911 48.6889 1.31111 45.3209 0.856018 41.0564C-0.285339 30.3627 -0.285339 19.6369 0.856018 8.94318C1.31111 4.67911 4.67911 1.31111 8.94318 0.856018C19.6369 -0.285339 30.3627 -0.285339 41.0564 0.856018C45.3209 1.31111 48.6889 4.67911 49.144 8.94318C50.2853 19.6369 50.2853 30.3627 49.144 41.0564C48.6889 45.3209 45.3213 48.6889 41.0568 49.144Z" fill="url(#paint0_linear)"/>
<path d="M46.4245 10.7518C46.0209 6.96802 43.0325 3.97921 39.2483 3.57523C29.7588 2.56281 20.2412 2.56281 10.7517 3.57523C6.96793 3.97921 3.97912 6.96802 3.57514 10.7518C2.56272 20.2413 2.56272 29.7589 3.57514 39.248C3.97912 43.0322 6.96793 46.021 10.7517 46.4246C20.2412 47.4374 29.7588 47.4374 39.2479 46.4246C43.0321 46.021 46.0209 43.0322 46.4245 39.248C47.4373 29.7589 47.4373 20.2413 46.4245 10.7518Z" fill="url(#paint1_linear)"/>
<path d="M0.749207 40.02C0.783539 40.3656 0.819016 40.7112 0.856018 41.0569C1.31111 45.3209 4.67911 48.6889 8.94356 49.144C19.6373 50.2854 30.3631 50.2854 41.0568 49.144C45.3213 48.6889 48.6889 45.3209 49.144 41.0569C49.181 40.7112 49.2165 40.3656 49.2512 40.02H0.749207Z" fill="url(#paint2_linear)"/>
<path fill-rule="evenodd" clip-rule="evenodd" d="M35.9318 14.0076C33.0311 11.105 29.2721 9.70161 25.1625 9.69971C16.6946 9.69971 9.90143 16.4906 9.89799 24.9585C9.89685 27.6654 10.8002 30.2094 12.1445 32.5383L9.5726 40.4965L18.9552 49.8788C26.3237 50.1744 33.6975 49.9295 41.0568 49.1441C45.3213 48.689 48.6889 45.321 49.144 41.0565C49.6067 36.7234 49.8814 32.3846 49.9691 28.045L35.9318 14.0076Z" fill="url(#paint3_linear)"/>
<path d="M10.107 39.9601L12.2112 32.2773C10.9131 30.0289 10.2306 27.478 10.2314 24.8653C10.2348 16.6908 16.8877 10.0403 25.0622 10.0403C29.0295 10.0422 32.7534 11.586 35.553 14.3883C38.3533 17.1909 39.8945 20.9156 39.893 24.8772C39.8895 33.0517 33.2359 39.703 25.0626 39.703C25.0622 39.703 25.0629 39.703 25.0626 39.703H25.0561C22.5742 39.7022 20.1355 39.0793 17.9691 37.8986L10.107 39.9601Z" fill="url(#paint4_linear)"/>
<path fill-rule="evenodd" clip-rule="evenodd" d="M35.9318 14.0077C33.0311 11.1051 29.174 9.50557 25.0645 9.50366C16.5966 9.50366 9.70535 16.3926 9.70192 24.8605C9.70078 27.5674 10.408 30.2095 11.7523 32.5383L9.5726 40.4966L17.7166 38.3611C19.9608 39.5848 22.4869 40.2295 25.058 40.2307H25.0645C33.5312 40.2307 40.4236 33.3402 40.427 24.8727C40.4285 20.7692 38.8321 16.9107 35.9318 14.0077ZM25.0645 37.6371H25.0595C22.768 37.6355 20.5208 37.0202 18.5608 35.8571L18.0943 35.5806L13.2614 36.8478L14.5515 32.1374L14.2475 31.6545C12.9692 29.622 12.2944 27.2733 12.2955 24.8616C12.2982 17.8235 18.026 12.0977 25.0694 12.0977C28.4801 12.0988 31.6856 13.4286 34.0969 15.841C36.5078 18.2538 37.8342 21.4608 37.8334 24.8719C37.8303 31.9101 32.1022 37.6371 25.0645 37.6371Z" fill="white"/>
<path fill-rule="evenodd" clip-rule="evenodd" d="M32.0683 28.0765C31.6845 27.8846 29.7974 26.9558 29.4453 26.8276C29.0936 26.6998 28.8376 26.6357 28.5816 27.0202C28.3257 27.404 27.5902 28.2684 27.3663 28.5244C27.1424 28.7807 26.9184 28.8128 26.5347 28.6209C26.1509 28.4282 24.9146 28.0235 23.4478 26.7158C22.3068 25.6984 21.5363 24.4419 21.3123 24.0577C21.0884 23.6736 21.2883 23.4657 21.481 23.2742C21.653 23.1025 21.8647 22.8264 22.0566 22.6021C22.2481 22.3781 22.3122 22.2179 22.4404 21.9619C22.5681 21.7056 22.5041 21.4817 22.4083 21.2898C22.3122 21.0975 21.5664 19.1993 21.225 18.4402C20.9374 17.8013 20.6345 17.7883 20.361 17.7772C20.1374 17.7677 19.8811 17.7681 19.6255 17.7681C19.3695 17.7681 18.9537 17.8642 18.602 18.2483C18.2499 18.6325 17.2581 19.561 17.2581 21.4496C17.2581 23.3383 18.634 25.1632 18.8255 25.4196C19.0178 25.6756 21.4813 29.6749 25.383 31.2137C28.6255 32.4924 29.2855 32.238 29.9893 32.1739C30.6931 32.1098 32.2602 31.2458 32.5802 30.3493C32.8999 29.4532 32.8999 28.685 32.8041 28.5244C32.708 28.3645 32.452 28.2684 32.0683 28.0765Z" fill="white"/>
<defs>
<linearGradient id="paint0_linear" x1="11.3743" y1="-1.25048" x2="47.4019" y2="68.1578" gradientUnits="userSpaceOnUse">
<stop stop-color="#FFFCF8"/>
<stop offset="0.1875" stop-color="#FAF8F6"/>
<stop offset="0.4041" stop-color="#ECEEF2"/>
<stop offset="0.6353" stop-color="#D5DCEA"/>
<stop offset="0.875" stop-color="#B5C4DF"/>
<stop offset="1" stop-color="#A1B5D8"/>
</linearGradient>
<linearGradient id="paint1_linear" x1="19.177" y1="21.7247" x2="-65.5289" y2="-25.9224" gradientUnits="userSpaceOnUse">
<stop stop-color="#A1B5D8" stop-opacity="0"/>
<stop offset="0.3094" stop-color="#90A2BD" stop-opacity="0.309804"/>
<stop offset="0.7554" stop-color="#7C8B9C" stop-opacity="0.756863"/>
<stop offset="1" stop-color="#748290"/>
</linearGradient>
<linearGradient id="paint2_linear" x1="25" y1="44.1373" x2="25" y2="51.9311" gradientUnits="userSpaceOnUse">
<stop stop-color="#A1B5D8" stop-opacity="0"/>
<stop offset="0.3094" stop-color="#90A2BD" stop-opacity="0.309804"/>
<stop offset="0.7554" stop-color="#7C8B9C" stop-opacity="0.756863"/>
<stop offset="1" stop-color="#748290"/>
</linearGradient>
<linearGradient id="paint3_linear" x1="33.1254" y1="39.7834" x2="14.2435" y2="8.75267" gradientUnits="userSpaceOnUse">
<stop stop-color="#A1B5D8" stop-opacity="0"/>
<stop offset="0.3094" stop-color="#90A2BD" stop-opacity="0.309804"/>
<stop offset="0.7554" stop-color="#7C8B9C" stop-opacity="0.756863"/>
<stop offset="1" stop-color="#748290"/>
</linearGradient>
<linearGradient id="paint4_linear" x1="24.9999" y1="39.9602" x2="24.9999" y2="10.0402" gradientUnits="userSpaceOnUse">
<stop stop-color="#20B038"/>
<stop offset="1" stop-color="#60D66A"/>
</linearGradient>
</defs>
</svg>
